# xmcd CD database file
#
# Track frame offsets:
#	150
#	13259
#	36286
#	51145
#	72424
#	84325
#	105096
#	122374
#	144517
#	158889
#	182386
#	194372
#
# Disc length: 2714 seconds
#
# Revision: 0
# Processed by: cddbd v1.5.2PL0 Copyright (c) Steve Scherf et al.
# Submitted via: CDex 1.51
#
DISCID=940a980c
DTITLE=Eric Plandé Trio - Abyss
DYEAR=2005
DGENRE=Jazz
TTITLE0=Gouffres Amers
TTITLE1=Abyss
TTITLE2=Free
TTITLE3=Aphrodite's Heart
TTITLE4=Freak
TTITLE5=Malaxe
TTITLE6=Manipulations
TTITLE7=Under The Sky
TTITLE8=Sixteen Tones
TTITLE9=Sisyphus
TTITLE10=In Your Dreams
TTITLE11=Parfum
EXTD=YEAR: 2005
EXTT0=
EXTT1=
EXTT2=
EXTT3=
EXTT4=
EXTT5=
EXTT6=
EXTT7=
EXTT8=
EXTT9=
EXTT10=
EXTT11=
PLAYORDER=
